<svg width="292" height="52" viewBox="0 0 292 52" fill="none" xmlns="http://www.w3.org/2000/svg">
<path d="M14.3799 15.6323H14.9888V18.8602H13.162C11.1011 18.8602 9.93006 17.7535 9.93006 15.6784V11.5282H3.60667V18.8602H0V1.33727H3.60667V8.39255H6.65127L10.9605 1.33727H14.9419L10.3048 8.39255H13.5367V14.8022C13.5367 15.3095 13.8646 15.6323 14.3799 15.6323Z" fill="black"/>
<path d="M29.8839 16.0012H30.4459V18.8602C30.2117 18.9063 29.837 18.9524 29.2281 18.9524C27.495 18.9524 26.6051 18.3068 26.3709 16.8312C25.3404 18.2146 23.5136 19.0907 21.4527 19.0907C18.736 19.0907 16.8624 17.4768 16.8624 15.0328C16.8624 11.5282 20.2348 10.8365 22.9047 10.5137C24.7315 10.2832 25.9025 10.0526 25.9025 9.13036C25.9025 8.16199 24.872 7.51641 23.1858 7.51641C21.6869 7.51641 20.2817 8.11587 19.2044 9.22258L17.1902 7.1475C18.8296 5.62578 20.8906 4.79574 23.3731 4.79574C26.9329 4.79574 29.0407 6.54803 29.0407 9.40703V15.1712C29.0407 15.7245 29.3218 16.0012 29.8839 16.0012ZM22.1553 16.4623C24.1694 16.4623 25.8088 15.125 25.8088 13.5111V12.0816C25.2467 12.4044 24.4504 12.5427 23.2794 12.7272C21.6869 13.0038 20.1412 13.2344 20.1412 14.7561C20.1412 15.8167 20.8906 16.4623 22.1553 16.4623Z" fill="black"/>
<path d="M40.4228 6.59415C44.0295 6.59415 46.5589 9.13036 46.5589 12.6811C46.5589 16.4623 43.7016 19.0907 39.5797 19.0907C35.1768 19.0907 32.5069 16.0473 32.5069 11.0671C32.5069 5.85634 34.521 2.99734 38.8303 2.07508L42.1559 1.33727C42.6712 1.24505 42.9522 0.968371 43.0459 0.461129L43.1864 0L46.3715 0.553355L46.3247 1.01448C46.0905 2.81289 45.06 3.78126 43.2332 4.24239L39.0645 5.07242C36.582 5.57966 35.5047 6.68637 35.3641 8.89979C36.3478 7.42418 38.1277 6.59415 40.4228 6.59415ZM39.5797 16.324C41.7344 16.324 43.0459 14.8945 43.0459 12.6811C43.0459 10.3754 41.7344 8.99202 39.5797 8.99202C37.3783 8.99202 36.0199 10.3754 36.0199 12.6349C36.0199 14.8484 37.4719 16.324 39.5797 16.324Z" fill="black"/>
<path d="M49.4629 3.18179V0.230565H53.1165V3.18179H49.4629ZM49.6035 18.8602V5.02631H52.9759V18.8602H49.6035Z" fill="black"/>
<path d="M66.7469 5.02631H70.1193V18.8602H66.7469V13.3266H60.6577V18.8602H57.2852V5.02631H60.6577V10.2832H66.7469V5.02631Z" fill="black"/>
<path d="M76.5364 13.0038C76.8643 15.0789 78.2695 16.324 80.471 16.324C82.2977 16.324 83.6092 15.6323 84.4524 14.6639L86.5602 16.6468C85.2486 18.0763 83.2814 19.0907 80.471 19.0907C75.6465 19.0907 73.1639 16.0473 73.1639 11.9432C73.1639 7.70086 75.9743 4.79574 80.2368 4.79574C84.4055 4.79574 87.1222 7.60863 87.1222 11.9432C87.1222 12.266 87.1222 12.4966 87.0286 13.0038H76.5364ZM80.2368 7.47029C78.2695 7.47029 76.958 8.62312 76.5833 10.5599H83.7029C83.3282 8.577 82.0635 7.47029 80.2368 7.47029Z" fill="black"/>
<path d="M101.127 5.02631V8.02365H96.2092V18.8602H92.8367V8.02365H87.8717V5.02631H101.127Z" fill="black"/>
<path d="M12.1315 29.8658V33.0937H3.60667V47.3887H0V29.8658H12.1315Z" fill="black"/>
<path d="M19.7664 33.3243C23.42 33.3243 25.8088 36.1372 25.8088 40.4718C25.8088 44.7603 23.3263 47.6193 19.7664 47.6193C17.8928 47.6193 16.3471 46.9276 15.2698 45.6364V52H11.8973V33.5548H14.8951L15.0825 35.6299C16.1598 34.1543 17.7992 33.3243 19.7664 33.3243ZM18.736 44.8525C20.9843 44.8525 22.3895 43.1463 22.3895 40.4718C22.3895 37.7972 20.9843 36.091 18.736 36.091C16.4876 36.091 15.1293 37.7972 15.1293 40.4718C15.1293 43.1463 16.4876 44.8525 18.736 44.8525Z" fill="black"/>
<path d="M35.1299 47.6193C30.727 47.6193 27.8697 44.8064 27.8697 40.4718C27.8697 36.1833 30.8207 33.3243 35.1299 33.3243C39.5329 33.3243 42.3901 36.1372 42.3901 40.4718C42.3901 44.7603 39.4392 47.6193 35.1299 47.6193ZM35.1299 44.8525C37.4719 44.8525 38.924 43.1924 38.924 40.4718C38.924 37.7511 37.4719 36.091 35.1299 36.091C32.7879 36.091 31.3359 37.7511 31.3359 40.4718C31.3359 43.1924 32.7879 44.8525 35.1299 44.8525Z" fill="black"/>
<path d="M62.8123 33.5548V47.3887H59.5804V37.2439L55.8332 47.3887H52.4607L48.7135 37.2439V47.3887H45.4347V33.5548H50.4934L54.1938 43.6074L57.8473 33.5548H62.8123Z" fill="black"/>
<path d="M78.7847 44.5297H79.3468V47.3887C79.1126 47.4348 78.7379 47.4809 78.129 47.4809C76.3959 47.4809 75.5059 46.8354 75.2717 45.3597C74.2413 46.7431 72.4145 47.6193 70.3535 47.6193C67.6368 47.6193 65.7632 46.0053 65.7632 43.5613C65.7632 40.0568 69.1357 39.3651 71.8056 39.0423C73.6323 38.8117 74.8033 38.5811 74.8033 37.6589C74.8033 36.6905 73.7729 36.0449 72.0866 36.0449C70.5877 36.0449 69.1825 36.6444 68.1052 37.7511L66.0911 35.676C67.7305 34.1543 69.7915 33.3243 72.274 33.3243C75.8338 33.3243 77.9416 35.0766 77.9416 37.9356V43.6997C77.9416 44.253 78.2226 44.5297 78.7847 44.5297ZM71.0561 44.9908C73.0703 44.9908 74.7097 43.6536 74.7097 42.0396V40.6101C74.1476 40.9329 73.3513 41.0712 72.1803 41.2557C70.5877 41.5324 69.042 41.7629 69.042 43.2847C69.042 44.3453 69.7915 44.9908 71.0561 44.9908Z" fill="black"/>
<path d="M94.9913 44.3914H96.8649V50.6166H93.633V47.3887H84.2182V50.6166H80.9862V44.3914H82.6724C82.9066 43.3308 83.0003 41.6707 83.0003 39.3189V33.5548H94.9913V44.3914ZM85.9512 44.4836H91.6657V36.4599H86.2791V39.4573C86.2791 41.4401 86.1854 43.1463 85.9512 44.4836Z" fill="black"/>
<path d="M111.338 33.5548V47.3887H107.966V42.3624H103.095V44.5758C103.095 46.4664 101.97 47.4348 100.05 47.4348C99.4411 47.4348 99.0664 47.4348 98.5512 47.3887V44.4836H99.0664C99.488 44.4836 99.769 44.2069 99.769 43.7919V40.9329H102.017C100.472 40.3795 99.2069 39.1345 99.2069 37.4744C99.2069 35.0766 101.081 33.5548 104.031 33.5548H111.338ZM105.109 36.1372C103.469 36.1372 102.626 36.8288 102.626 38.0278C102.626 39.2267 103.563 39.9645 105.249 39.9645H107.966V36.1372H105.109Z" fill="black"/>
<path d="M124.828 33.5548H128.201V47.3887H124.828V41.8552H118.739V47.3887H115.367V33.5548H118.739V38.8117H124.828V33.5548Z" fill="black"/>
<path d="M141.738 33.5548H145.11V47.3887H141.831V38.2584L135.602 47.3887H132.229V33.5548H135.555V42.6852L141.738 33.5548Z" fill="black"/>
<path d="M158.647 33.5548H162.019V47.3887H158.647V41.8552H152.558V47.3887H149.185V33.5548H152.558V38.8117H158.647V33.5548Z" fill="black"/>
<path d="M177.945 44.5297H178.507V47.3887C178.273 47.4348 177.898 47.4809 177.289 47.4809C175.556 47.4809 174.666 46.8354 174.432 45.3597C173.401 46.7431 171.575 47.6193 169.514 47.6193C166.797 47.6193 164.923 46.0053 164.923 43.5613C164.923 40.0568 168.296 39.3651 170.966 39.0423C172.792 38.8117 173.963 38.5811 173.963 37.6589C173.963 36.6905 172.933 36.0449 171.247 36.0449C169.748 36.0449 168.343 36.6444 167.265 37.7511L165.251 35.676C166.891 34.1543 168.952 33.3243 171.434 33.3243C174.994 33.3243 177.102 35.0766 177.102 37.9356V43.6997C177.102 44.253 177.383 44.5297 177.945 44.5297ZM170.216 44.9908C172.23 44.9908 173.87 43.6536 173.87 42.0396V40.6101C173.308 40.9329 172.511 41.0712 171.34 41.2557C169.748 41.5324 168.202 41.7629 168.202 43.2847C168.202 44.3453 168.952 44.9908 170.216 44.9908Z" fill="black"/>
<path d="M200.381 29.8658H204.175L199.304 42.9158C198.133 46.0975 196.259 47.6193 193.589 47.6193C190.779 47.6193 188.859 45.8209 188.859 43.1463C188.859 41.6707 189.467 40.3795 190.498 39.4573H192.325L187.125 29.8658H191.107L195.978 39.4573H197.149L200.381 29.8658ZM193.683 44.8064C194.76 44.8064 195.463 44.1608 195.931 42.9619L196.306 41.9935H192.418C192.184 42.3163 192.044 42.6852 192.044 43.1002C192.044 44.1608 192.653 44.8064 193.683 44.8064Z" fill="black"/>
<path d="M218.789 44.4836H219.398V47.3887C218.836 47.4348 218.461 47.4348 217.899 47.4348C215.932 47.4348 214.855 46.4664 214.855 44.5758V41.8552H210.03V47.3887H206.658V28.9435H210.03V38.8117H212.232L215.651 33.5548H219.211L215.604 38.8578H218.087V43.7919C218.087 44.2069 218.368 44.4836 218.789 44.4836Z" fill="black"/>
<path d="M230.171 33.3243C233.825 33.3243 236.214 36.1372 236.214 40.4718C236.214 44.7603 233.731 47.6193 230.171 47.6193C228.298 47.6193 226.752 46.9276 225.675 45.6364V52H222.302V33.5548H225.3L225.487 35.6299C226.565 34.1543 228.204 33.3243 230.171 33.3243ZM229.141 44.8525C231.389 44.8525 232.794 43.1463 232.794 40.4718C232.794 37.7972 231.389 36.091 229.141 36.091C226.893 36.091 225.534 37.7972 225.534 40.4718C225.534 43.1463 226.893 44.8525 229.141 44.8525Z" fill="black"/>
<path d="M250.875 44.5297H251.437V47.3887C251.202 47.4348 250.828 47.4809 250.219 47.4809C248.486 47.4809 247.596 46.8354 247.362 45.3597C246.331 46.7431 244.504 47.6193 242.443 47.6193C239.727 47.6193 237.853 46.0053 237.853 43.5613C237.853 40.0568 241.226 39.3651 243.895 39.0423C245.722 38.8117 246.893 38.5811 246.893 37.6589C246.893 36.6905 245.863 36.0449 244.176 36.0449C242.678 36.0449 241.272 36.6444 240.195 37.7511L238.181 35.676C239.82 34.1543 241.881 33.3243 244.364 33.3243C247.924 33.3243 250.031 35.0766 250.031 37.9356V43.6997C250.031 44.253 250.312 44.5297 250.875 44.5297ZM243.146 44.9908C245.16 44.9908 246.799 43.6536 246.799 42.0396V40.6101C246.237 40.9329 245.441 41.0712 244.27 41.2557C242.678 41.5324 241.132 41.7629 241.132 43.2847C241.132 44.3453 241.881 44.9908 243.146 44.9908Z" fill="black"/>
<path d="M251.905 31.7103V28.7591H255.418V31.7103H251.905ZM257.104 31.7103V28.7591H260.617V31.7103H257.104ZM254.575 47.3887V33.5548H257.947V47.3887H254.575Z" fill="black"/>
<path d="M271.718 33.5548H275.091V47.3887H271.718V41.8552H265.629V47.3887H262.257V33.5548H265.629V38.8117H271.718V33.5548Z" fill="black"/>
<path d="M288.628 33.5548H292V47.3887H288.721V38.2584L282.491 47.3887H279.119V33.5548H282.445V42.6852L288.628 33.5548Z" fill="black"/>
</svg>
